<mxfile host="app.diagrams.net" modified="2023-03-30T02:46:45.763Z" agent="Mozilla/5.0 (X11; Linux x86_64) AppleWebKit/537.36 (KHTML, like Gecko) Chrome/110.0.0.0 Safari/537.36" etag="hqj4Uy0neYjb1pnFOdlD" version="21.1.2" type="github">
  <diagram name="第 1 页" id="0aYG0d6s64lShTG84l0Q">
    <mxGraphModel dx="1434" dy="775" grid="1" gridSize="10" guides="1" tooltips="1" connect="1" arrows="1" fold="1" page="1" pageScale="1" pageWidth="827" pageHeight="1169" math="0" shadow="0">
      <root>
        <mxCell id="0" />
        <mxCell id="1" parent="0" />
        <mxCell id="ka5lAGq2rfhhUSYYgeaB-1" value="Pool" style="swimlane;childLayout=stackLayout;resizeParent=1;resizeParentMax=0;startSize=20;html=1;" vertex="1" parent="1">
          <mxGeometry x="230" y="160" width="480" height="480" as="geometry" />
        </mxCell>
        <mxCell id="ka5lAGq2rfhhUSYYgeaB-2" value="Lane 1" style="swimlane;startSize=20;html=1;" vertex="1" parent="ka5lAGq2rfhhUSYYgeaB-1">
          <mxGeometry y="20" width="120" height="460" as="geometry" />
        </mxCell>
        <mxCell id="ka5lAGq2rfhhUSYYgeaB-7" value="Lane 1" style="swimlane;startSize=20;html=1;" vertex="1" parent="ka5lAGq2rfhhUSYYgeaB-1">
          <mxGeometry x="120" y="20" width="120" height="460" as="geometry" />
        </mxCell>
        <mxCell id="ka5lAGq2rfhhUSYYgeaB-3" value="Lane 2" style="swimlane;startSize=20;html=1;" vertex="1" parent="ka5lAGq2rfhhUSYYgeaB-1">
          <mxGeometry x="240" y="20" width="120" height="460" as="geometry" />
        </mxCell>
        <mxCell id="ka5lAGq2rfhhUSYYgeaB-4" value="Lane 3" style="swimlane;startSize=20;html=1;" vertex="1" parent="ka5lAGq2rfhhUSYYgeaB-1">
          <mxGeometry x="360" y="20" width="120" height="460" as="geometry" />
        </mxCell>
        <mxCell id="ka5lAGq2rfhhUSYYgeaB-5" value="Lane 1" style="swimlane;startSize=20;html=1;" vertex="1" parent="1">
          <mxGeometry x="470" y="180" width="120" height="460" as="geometry" />
        </mxCell>
      </root>
    </mxGraphModel>
  </diagram>
</mxfile>
